<svg id="Group_97" data-name="Group 97" xmlns="http://www.w3.org/2000/svg" xmlns:xlink="http://www.w3.org/1999/xlink" width="25" height="25" viewBox="0 0 25 25">
  <defs>
    <clipPath id="clip-path">
      <rect id="Rectangle_53" data-name="Rectangle 53" width="25" height="25" fill="none"/>
    </clipPath>
  </defs>
  <g id="Group_96" data-name="Group 96" clip-path="url(#clip-path)">
    <path id="Path_134" data-name="Path 134" d="M0,12.5A12.5,12.5,0,1,1,12.5,25,12.5,12.5,0,0,1,0,12.5" fill="#ffc107"/>
    <path id="Path_135" data-name="Path 135" d="M30.483,12.486A12.5,12.5,0,0,1,13.41,29.873,12.5,12.5,0,1,0,30.483,12.486" transform="translate(-11.443 -10.655)" fill="#fdc453"/>
    <path id="Path_136" data-name="Path 136" d="M6.559,19.189a11.605,11.605,0,0,1,20.805-7.075A11.606,11.606,0,1,0,8.1,24.973a11.553,11.553,0,0,1-1.542-5.784" transform="translate(-4.86 -5.37)" fill="#ffd77f"/>
    <path id="Path_137" data-name="Path 137" d="M46.205,97.428a.412.412,0,0,0-.671.45,6.266,6.266,0,0,0,11.587.115.412.412,0,0,0-.666-.455c-1.829,1.774-5.713,4.3-10.25-.11" transform="translate(-38.829 -83.037)" fill="#5e4939"/>
    <path id="Path_138" data-name="Path 138" d="M49.4,60.948c0,.857-.412,1.552-.921,1.552s-.921-.7-.921-1.552.412-1.552.921-1.552.921.695.921,1.552" transform="translate(-40.579 -50.685)" fill="#303030"/>
    <path id="Path_139" data-name="Path 139" d="M112.2,60.948c0,.857-.412,1.552-.921,1.552s-.921-.7-.921-1.552.412-1.552.921-1.552.921.695.921,1.552" transform="translate(-94.174 -50.685)" fill="#303030"/>
  </g>
</svg>
